<svg xmlns:xlink="http://www.w3.org/1999/xlink" width="128" xmlns="http://www.w3.org/2000/svg" id="screenshot" version="1.1" viewBox="0 0 128 128" height="128" style="-webkit-print-color-adjust: exact;"><rect x="0" y="0" width="128" height="128" class="frame-background" style="fill: rgb(255, 255, 255); fill-opacity: 0;"/><g id="shape-5f5328a0-46f5-11ec-8a11-ff4252258a24" width="16" height="16"><g id="shape-5f594320-46f5-11ec-8a11-ff4252258a24"><path d="M19.750000246181685,22.8749993089366C11.578500320851617,22.8749993089366,5.000000380965048,29.453499248823185,5.000000380965048,37.624999174153274L5.000000380965048,89.24999870241163C5.000000380965048,97.42149862774173,11.578500320851617,103.99999856762831,19.750000246181685,103.99999856762831L86.12499963965678,103.99999856762831C94.29649956498685,103.99999856762831,100.87499950487341,97.42149862774173,100.87499950487341,89.24999870241163L100.87499950487341,61.224998958499995L122.99999930269848,37.624999174153274L100.87499950487341,37.624999174153274C100.87499950487341,29.453499248823185,94.29649956498685,22.8749993089366,86.12499963965678,22.8749993089366L19.750000246181685,22.8749993089366ZM51.48024994709749,34.624999174153274C61.156249858679644,34.07924917914025,69.8292497794269,41.527999111074735,70.37499977444008,51.21874902252203C70.37499977444008,59.48612394697591,68.10349979519651,62.60574891846926,60.92762486076879,68.04112386880166C60.16999846619393,68.57619995691816,59.47485159651444,69.19465802602797,58.85524987970581,69.88487385195374C58.56024988240182,70.25362384858418,58.6192498818624,70.12824884972974,58.6192498818624,70.11349884986461C58.663499881457824,73.23312382135789,55.742999908145066,75.8807487971643,52.63074993658438,75.8807487971643C49.461798924002665,75.84480494250643,46.902763856399474,73.28249326150066,46.87087498921733,70.11349884986461C46.87087498921733,67.15612387688869,48.19099997715455,64.55274890067793,49.636499963945425,62.73849891725628C50.83694922888981,61.18693551325802,52.22968652207339,59.794198220074804,53.78124992607127,58.593748955130366C55.2933111636321,57.43114663381047,56.684378939796034,56.11914487689573,57.93337488812978,54.67762399091541C58.47912488314296,54.013873996980664,58.64874988159329,52.907624007089325,58.6192498818624,52.14062401409808L58.6192498818624,51.91199901618721C58.55370199472105,50.34477369580215,57.85501621975527,48.87122513660718,56.683093664704074,47.828589411472564C55.51117110965299,46.78595368633796,53.96633091264789,46.26348269751652,52.40212493867352,46.38074906673096C49.075999969067084,46.56512406504618,46.40624999346301,49.05049904233522,46.12599999602355,51.97099901564815C45.93312209336443,54.72870938525152,43.593730947119184,56.84002618576237,40.830750044411275,56.749998971978286C38.14920903512416,56.73611760826623,35.80038583497037,54.9496886954731,35.07087509704422,52.369249012008936C34.89162053227244,51.06305184796385,34.91650090309133,49.73692808330496,35.14462509636985,48.43837404792869C35.181500096033346,48.33512404887226,35.18887509596527,48.21712404995047,35.23312509556126,48.121249050826535C36.722875081948246,40.56924911983555,43.271875022104496,35.082249169975015,51.48024994709749,34.624999174153274ZL51.48024994709749,34.624999174153274ZM52.63074993658438,81.8692487424423C55.927611143549825,81.90129595312746,58.59126036924431,84.56822553501138,58.6192498818624,87.86512368765284C58.6192498818624,91.12487365786579,55.89049990679712,93.62499863501996,52.63074993658438,93.62499863501996C51.09524841106327,93.65121782038365,49.614918445037574,93.05279881102923,48.52899662912262,91.9668769951145C47.44307481320823,90.88095517919962,46.84465580385381,89.40062521317414,46.87087498921733,87.86512368765284C46.87087498921733,84.60537371743999,49.37099996637164,81.8692487424423,52.63074993658438,81.8692487424423ZL52.63074993658438,81.8692487424423Z" style="fill: rgb(255, 106, 0); fill-opacity: 1;"/></g></g></svg>